<?xml version="1.0" encoding="utf-8"?>
<!-- Generator: Adobe Illustrator 25.3.1, SVG Export Plug-In . SVG Version: 6.00 Build 0)  -->
<svg version="1.1" id="图层_1" xmlns="http://www.w3.org/2000/svg" xmlns:xlink="http://www.w3.org/1999/xlink" x="0px" y="0px"
	 viewBox="0 0 300 300" style="enable-background:new 0 0 300 300;" xml:space="preserve">
<style type="text/css">
	.st0{fill-rule:evenodd;clip-rule:evenodd;fill:url(#SVGID_1_);}
	.st1{fill-rule:evenodd;clip-rule:evenodd;fill:url(#SVGID_2_);}
	.st2{opacity:0.3;}
	.st3{fill:url(#SVGID_3_);}
	.st4{fill:url(#SVGID_4_);}
	.st5{fill:url(#SVGID_5_);}
	.st6{fill:url(#SVGID_6_);}
	.st7{fill:url(#SVGID_7_);}
</style>
<g>
	<g>
		<radialGradient id="SVGID_1_" cx="150" cy="149.7678" r="150" gradientUnits="userSpaceOnUse">
			<stop  offset="0" style="stop-color:#643CF0"/>
			<stop  offset="1" style="stop-color:#6E3CE6"/>
		</radialGradient>
		<path class="st0" d="M253.51-0.23H46.49C20.81-0.23,0,20.58,0,46.25v207.03c0,25.67,20.81,46.49,46.49,46.49h207.03
			c25.67,0,46.49-20.81,46.49-46.49V46.25C300,20.58,279.19-0.23,253.51-0.23z"/>
	</g>
	<g>
		<g>
			<linearGradient id="SVGID_2_" gradientUnits="userSpaceOnUse" x1="12.8487" y1="-154.1517" x2="140.1655" y2="128.0453">
				<stop  offset="0" style="stop-color:#643CF0"/>
				<stop  offset="1" style="stop-color:#FFFFFF"/>
			</linearGradient>
			<path class="st1" d="M116.44,73.22h135.11c0.74,0.19,1.11,0.49,0.99,1.17l-8.29,41.8c-0.19,0.8-0.68,1.24-1.42,1.24h-67.77
				c-8.72-5.13-13.36-15.27-11.01-27.02c0.25-1.05-0.43-1.86-1.48-1.86c-1.05,0-2.04,0.8-2.23,1.86
				c-3.34,16.82-19.66,30.42-36.48,30.42c-1.05,0-2.04,0.8-2.23,1.86c-0.25,0.99,0.43,1.86,1.48,1.86
				c16.82,0,27.76,13.6,24.36,30.42c-0.25,1.05,0.43,1.85,1.48,1.85c0.99,0,2.04-0.8,2.23-1.85c2.29-11.75,11.01-21.89,21.77-27.02
				h32.52c15.77,0,25.23,9.77,28.2,29.43c-0.19,8.59-0.25,13.11-0.31,13.54l-1.36,0.62H94.55c-15.77,0-25.17-9.65-28.13-29.06
				c0-0.19,0-0.25,0-0.43c-0.25-3.52-0.12-7.48,0.25-11.38c0.06-1.3,0.06-2.04,0.12-2.23l0.12-0.06c0.49-4.14,1.24-8.16,2.23-11.69
				C78.59,87.75,94.36,73.22,116.44,73.22L116.44,73.22z M57.2,182.11h172.7l1.11,0.68c-9.58,29.06-25.29,43.53-47.43,43.53H48.42
				c-0.74,0-1.11-0.37-0.93-1.17l8.29-41.86C56.15,182.54,56.64,182.11,57.2,182.11z"/>
		</g>
		<g class="st2">
			<radialGradient id="SVGID_3_" cx="170.7586" cy="211.4697" r="156.0097" gradientUnits="userSpaceOnUse">
				<stop  offset="0" style="stop-color:#FFFFFF"/>
				<stop  offset="1" style="stop-color:#000000"/>
			</radialGradient>
			<path class="st3" d="M151.81,159.66c0.99,0,2.04-0.8,2.23-1.85c2.29-11.75,11.01-21.89,21.77-27.02h32.52
				c6.9,0,12.6,1.87,17.07,5.63c-4.8-5.65-11.45-8.47-19.91-8.47h-32.52c-10.76,5.13-19.48,15.27-21.77,27.02
				c-0.07,0.41-0.28,0.78-0.56,1.08c-0.08,0.58-0.18,1.17-0.3,1.76C150.08,158.86,150.76,159.66,151.81,159.66z"/>
			<radialGradient id="SVGID_4_" cx="170.7586" cy="211.4697" r="156.0097" gradientUnits="userSpaceOnUse">
				<stop  offset="0" style="stop-color:#FFFFFF"/>
				<stop  offset="1" style="stop-color:#000000"/>
			</radialGradient>
			<path class="st4" d="M125.96,127.39c6.62,0,12.33,2.12,16.62,5.7c-4.1-4.9-10.25-8.06-17.67-8.49c-0.21,0.27-0.36,0.59-0.42,0.93
				C124.23,126.52,124.91,127.39,125.96,127.39z"/>
			<radialGradient id="SVGID_5_" cx="170.7586" cy="211.4697" r="156.0097" gradientUnits="userSpaceOnUse">
				<stop  offset="0" style="stop-color:#FFFFFF"/>
				<stop  offset="1" style="stop-color:#000000"/>
			</radialGradient>
			<path class="st5" d="M69.26,144.88c-0.25-3.52-0.12-7.48,0.25-11.38c0.06-1.3,0.06-2.04,0.12-2.23l0.12-0.06
				c0.49-4.14,1.24-8.16,2.23-11.69c9.46-28.94,25.23-43.47,47.3-43.47H252.2l0.33-1.67c0.12-0.68-0.25-0.99-0.99-1.17H116.44
				c-22.07,0-37.84,14.53-47.3,43.47c-0.99,3.52-1.73,7.54-2.23,11.69l-0.12,0.06c-0.06,0.19-0.06,0.93-0.12,2.23
				c-0.37,3.9-0.49,7.85-0.25,11.38c0,0.19,0,0.25,0,0.43c1.66,10.87,5.34,18.67,11.02,23.44c-4.08-4.81-6.81-11.66-8.17-20.59
				C69.26,145.13,69.26,145.07,69.26,144.88z"/>
			<radialGradient id="SVGID_6_" cx="170.7586" cy="211.4697" r="156.0097" gradientUnits="userSpaceOnUse">
				<stop  offset="0" style="stop-color:#FFFFFF"/>
				<stop  offset="1" style="stop-color:#000000"/>
			</radialGradient>
			<path class="st6" d="M60.05,184.95h170.23c0.25-0.71,0.5-1.43,0.74-2.17l-1.11-0.68H57.2c-0.56,0-1.05,0.43-1.42,1.17
				l-8.29,41.86c-0.19,0.8,0.19,1.17,0.93,1.17h2.25l7.95-40.19C58.99,185.39,59.49,184.95,60.05,184.95z"/>
			<radialGradient id="SVGID_7_" cx="170.7586" cy="211.4697" r="156.0097" gradientUnits="userSpaceOnUse">
				<stop  offset="0" style="stop-color:#FFFFFF"/>
				<stop  offset="1" style="stop-color:#000000"/>
			</radialGradient>
			<path class="st7" d="M166.89,93.25c0.25-1.05-0.43-1.85-1.48-1.85c-0.62,0-1.22,0.29-1.65,0.74c-1.37,9.52,1.87,17.84,8.14,23.07
				C167.23,109.66,165.17,101.89,166.89,93.25z"/>
		</g>
	</g>
</g>
</svg>
