<?xml version="1.0" encoding="utf-8"?>
<!-- Generator: Adobe Illustrator 25.3.1, SVG Export Plug-In . SVG Version: 6.00 Build 0)  -->
<svg version="1.1" id="图层_1" xmlns="http://www.w3.org/2000/svg" xmlns:xlink="http://www.w3.org/1999/xlink" x="0px" y="0px"
	 viewBox="0 0 48 48" style="enable-background:new 0 0 48 48;" xml:space="preserve">
<style type="text/css">
	.st0{fill-rule:evenodd;clip-rule:evenodd;fill:#6F3BEB;}
</style>
<g>
	<path class="st0" d="M18.57,11.62h21.85c0.12,0.03,0.18,0.08,0.16,0.19l-1.34,6.76c-0.03,0.13-0.11,0.2-0.23,0.2H28.05
		c-1.41-0.83-2.16-2.47-1.78-4.37c0.04-0.17-0.07-0.3-0.24-0.3s-0.33,0.13-0.36,0.3c-0.54,2.72-3.18,4.92-5.9,4.92
		c-0.17,0-0.33,0.13-0.36,0.3c-0.04,0.16,0.07,0.3,0.24,0.3c2.72,0,4.49,2.2,3.94,4.92c-0.04,0.17,0.07,0.3,0.24,0.3
		c0.16,0,0.33-0.13,0.36-0.3c0.37-1.9,1.78-3.54,3.52-4.37h5.26c2.55,0,4.08,1.58,4.56,4.76c-0.03,1.39-0.04,2.12-0.05,2.19
		l-0.22,0.1H15.03c-2.55,0-4.07-1.56-4.55-4.7c0-0.03,0-0.04,0-0.07c-0.04-0.57-0.02-1.21,0.04-1.84c0.01-0.21,0.01-0.33,0.02-0.36
		l0.02-0.01c0.08-0.67,0.2-1.32,0.36-1.89C12.45,13.97,15,11.62,18.57,11.62L18.57,11.62z M8.99,29.23h27.93l0.18,0.11
		c-1.55,4.7-4.09,7.04-7.67,7.04H7.57c-0.12,0-0.18-0.06-0.15-0.19l1.34-6.77C8.82,29.3,8.9,29.23,8.99,29.23z"/>
</g>
</svg>
