<?xml version="1.0" encoding="utf-8"?>
<!-- Generator: Adobe Illustrator 25.3.1, SVG Export Plug-In . SVG Version: 6.00 Build 0)  -->
<svg version="1.1" id="图层_1" xmlns="http://www.w3.org/2000/svg" xmlns:xlink="http://www.w3.org/1999/xlink" x="0px" y="0px"
	 viewBox="0 0 455 108" style="enable-background:new 0 0 455 108;" xml:space="preserve">
<style type="text/css">
	.st0{fill-rule:evenodd;clip-rule:evenodd;fill:#6F3BEB;}
	.st1{fill:#3B3C48;}
</style>
<g>
	<g>
		<path class="st0" d="M48.13,0.53h94.5c0.52,0.13,0.78,0.35,0.69,0.82l-5.8,29.24c-0.13,0.56-0.48,0.87-0.99,0.87h-47.4
			c-6.1-3.59-9.34-10.68-7.7-18.9c0.17-0.74-0.3-1.3-1.04-1.3c-0.74,0-1.43,0.56-1.56,1.3C76.5,24.31,65.08,33.83,53.32,33.83
			c-0.74,0-1.43,0.56-1.56,1.3c-0.17,0.69,0.3,1.3,1.04,1.3c11.76,0,19.42,9.52,17.04,21.28c-0.17,0.74,0.3,1.3,1.04,1.3
			c0.69,0,1.43-0.56,1.56-1.3c1.6-8.22,7.7-15.31,15.22-18.9h22.75c11.03,0,17.65,6.83,19.72,20.59c-0.13,6.01-0.17,9.17-0.22,9.47
			l-0.95,0.43H32.82c-11.03,0-17.6-6.75-19.68-20.33c0-0.13,0-0.17,0-0.3c-0.17-2.47-0.09-5.23,0.17-7.96
			c0.04-0.91,0.04-1.43,0.09-1.56l0.09-0.04c0.35-2.9,0.87-5.71,1.56-8.17C21.66,10.69,32.69,0.53,48.13,0.53L48.13,0.53z
			 M6.69,76.69h120.8l0.78,0.48c-6.7,20.33-17.69,30.45-33.17,30.45H0.55c-0.52,0-0.78-0.26-0.65-0.82l5.8-29.28
			C5.96,76.99,6.31,76.69,6.69,76.69z"/>
	</g>
	<g>
		<g>
			<path class="st1" d="M166.56,52.69c1.84,1.11,5.03,1.96,7.64,1.96c4.8,0,7.43-2.8,7.43-6.84c0-3.98-2.42-6.22-6.45-8.99
				c-5.44-3.5-9.28-8.39-9.28-13.71c0-7.7,5.22-13.77,14.42-13.77c3.17,0,6.03,0.94,7.36,1.79l-1.46,6.7
				c-1.34-0.88-3.42-1.67-6.09-1.67c-4.44,0-6.53,3.02-6.53,5.97c0,3.82,1.96,5.55,6.99,8.8c6.26,4.05,8.74,8.84,8.74,14.12
				c0,8.82-6.34,14.44-15.14,14.44c-3.71,0-7.39-1.04-8.93-2.06L166.56,52.69z"/>
			<path class="st1" d="M204.05,15.93v9.53h6.9v5.65h-6.9v18.44c0,4.36,1.69,5.45,3.65,5.45c0.92,0,1.65-0.08,2.4-0.21l0.15,6.07
				c-1.17,0.36-2.88,0.6-5.09,0.6c-2.52,0-4.74-0.63-6.3-2.21c-1.73-1.75-2.61-4.32-2.61-9.62V31.11h-4.26v-5.65h4.26v-7.53
				L204.05,15.93z"/>
			<path class="st1" d="M215.59,35.49c0-3.3-0.17-6.99-0.29-10.03h6.82l0.4,5.36h0.23c1.38-3.61,4.32-5.95,7.22-5.95
				c0.77,0,1.19,0.04,1.65,0.13v7.8c-0.48-0.08-0.98-0.08-1.67-0.08c-2.71,0-5.42,2.25-6.24,6.11c-0.19,0.86-0.33,2.06-0.33,3.42
				v18.78h-7.8C215.59,61.03,215.59,35.49,215.59,35.49z"/>
			<path class="st1" d="M250.47,61.03l-0.46-3.63h-0.17c-1.77,2.75-4.42,4.21-7.53,4.21c-5.11,0-8.95-4.28-8.95-10.53
				c0-9.14,7.72-13,15.77-13.08v-0.92c0-3.71-1.44-6.3-5.32-6.3c-2.54,0-4.71,0.75-6.63,1.98l-1.5-5.32
				c1.75-1.11,5.49-2.54,9.83-2.54c9.16,0,11.5,6.26,11.5,13.85v14.21c0,2.77,0.08,5.74,0.46,8.11h-7.01L250.47,61.03L250.47,61.03z
				 M249.34,43.21c-3.03,0.04-8.53,0.88-8.53,7.07c0,4.01,2.13,5.47,3.86,5.47c1.96,0,3.84-1.33,4.49-4.07
				c0.15-0.56,0.19-1.19,0.19-1.81L249.34,43.21L249.34,43.21z"/>
			<path class="st1" d="M272.89,15.93v9.53h6.9v5.65h-6.9v18.44c0,4.36,1.69,5.45,3.65,5.45c0.92,0,1.65-0.08,2.4-0.21l0.15,6.07
				c-1.17,0.36-2.88,0.6-5.09,0.6c-2.52,0-4.74-0.63-6.3-2.21c-1.73-1.75-2.61-4.32-2.61-9.62V31.11h-4.26v-5.65h4.26v-7.53
				L272.89,15.93z"/>
			<path class="st1" d="M308.06,43.15c0,14.35-7.39,18.46-12.79,18.46c-7.55,0-12.7-6.32-12.7-18.28c0-12.85,6.32-18.46,12.95-18.46
				C302.98,24.86,308.06,31.43,308.06,43.15z M290.35,43.21c0,5.99,1.02,12.39,5.17,12.39c3.88,0,4.76-7.03,4.76-12.39
				c0-5.17-0.88-12.31-4.92-12.31C291.19,30.9,290.35,38.04,290.35,43.21z"/>
			<path class="st1" d="M344.55,42.02c-0.29-5.51-0.61-12.22-0.46-17.67h-0.25c-0.96,5.38-2.29,11.35-3.48,16.06l-5.09,20.05h-5.36
				l-4.84-19.48c-1.25-5.01-2.63-11.12-3.48-16.61h-0.21c-0.06,5.57-0.4,12.08-0.67,17.92l-0.86,18.77h-6.8l3.27-49.25h8.32
				l4.74,19.94c1.5,6.36,2.73,11.52,3.69,17.11h0.17c0.85-5.53,1.94-10.7,3.36-17.11l4.65-19.94h8.45l2.92,49.25h-7.09L344.55,42.02
				z"/>
			<path class="st1" d="M367.37,16.14c0.04,2.67-1.77,4.49-4.32,4.49c-2.27,0-4.09-1.81-4.05-4.49c-0.04-2.77,1.86-4.53,4.17-4.53
				C365.62,11.61,367.37,13.36,367.37,16.14z M359.36,61.03V25.46h7.8v35.57H359.36z"/>
			<path class="st1" d="M374.34,35.49c0-4.01-0.17-6.88-0.29-10.03h6.76l0.4,4.19h0.15c1.69-2.84,4.69-4.76,8.41-4.76
				c5.93,0,9.08,4.61,9.08,12.85v23.3h-7.8V38.46c0-3.55-0.75-7.03-4.15-7.03c-1.94,0-3.67,1.48-4.36,4.36
				c-0.23,0.79-0.4,1.94-0.4,3.23v21.99h-7.8V35.49H374.34z"/>
			<path class="st1" d="M429.9,10.46v40.95c0,2.92,0.17,6.88,0.29,9.6h-6.7l-0.46-4.23h-0.21c-1.23,2.52-3.94,4.8-7.41,4.8
				c-6.88,0-10.76-7.55-10.76-18.27c0-12.48,5.36-18.48,11.12-18.48c2.94,0,5.09,1.4,6.22,3.86h0.15V10.46
				C422.14,10.46,429.9,10.46,429.9,10.46z M422.14,39.06c0-0.67,0-1.48-0.12-2.19c-0.33-2.86-1.94-5.4-4.24-5.4
				c-3.94,0-5.36,5.61-5.36,11.97c0,7.11,1.88,11.72,5.17,11.72c1.46,0,3.28-0.77,4.26-4.42c0.19-0.61,0.27-1.4,0.27-2.29
				L422.14,39.06L422.14,39.06z"/>
		</g>
	</g>
	<g>
		<path d="M165.72,93.81l-0.69-2.29c3.26-3.68,5.64-7.93,7.11-12.69l2.02,0.96c-0.78,2.38-1.78,4.64-2.98,6.75v20.07h-2.17V89.89
			C167.98,91.28,166.9,92.58,165.72,93.81z M174.7,91.16l-1.87-1.15c2.29-3.35,3.95-7.05,4.97-11.12l2.05,0.42
			c-0.3,1.18-0.66,2.29-1.02,3.35h12.84v1.42c-0.48,1.87-1.08,3.71-1.84,5.52l-2.08-0.6c0.69-1.27,1.27-2.65,1.72-4.22h-11.42
			C177.08,87.12,175.97,89.23,174.7,91.16z M179.26,91.76c-1.09,4.19-2.5,7.87-4.25,11.03l-2.02-0.72
			c1.63-2.83,3.07-6.45,4.31-10.85L179.26,91.76z M177.87,106.41l-0.45-2.05c1.27,0.09,2.5,0.15,3.65,0.15
			c0.75,0,1.15-0.39,1.15-1.18V87.3h2.11v16.58c0,1.69-0.84,2.53-2.5,2.53H177.87z M192.43,102.46l-1.9,0.84
			c-1.21-4.4-2.56-8.32-4.04-11.69l1.93-0.63C189.95,94.53,191.28,98.36,192.43,102.46z"/>
		<path d="M210.54,104.75h-2.11v-1.72h-5.49v2.59h-2.11V84.2h2.8c0.6-1.69,1.03-3.44,1.3-5.24l2.17,0.3
			c-0.36,1.78-0.81,3.44-1.42,4.94h4.85V104.75z M208.43,92.45v-6.21h-5.49v6.21H208.43z M208.43,101.01v-6.6h-5.49v6.6H208.43z
			 M225.67,102.79c-0.3,2.29-1.69,3.47-4.22,3.47c-0.6,0-1.63-0.06-3.07-0.12l-0.51-1.99c1.27,0.06,2.35,0.09,3.29,0.09
			c1.42,0,2.23-0.78,2.47-2.32c0.18-1.69,0.3-6.9,0.36-15.58h-8.29c-0.84,1.9-1.84,3.62-3.01,5.15l-1.3-1.72
			c2.11-2.95,3.53-6.57,4.31-10.85l2.14,0.27c-0.36,1.78-0.78,3.47-1.33,5.03h9.61C226.12,94.23,225.97,100.44,225.67,102.79z
			 M220.73,97.76l-1.72,1.21c-1.24-1.99-2.89-4.22-4.97-6.69l1.75-1.08C217.96,93.69,219.58,95.89,220.73,97.76z"/>
		<path d="M244.06,82.09l8.47,21.52h-2.68l-2.29-6.03h-9.89l-2.29,6.03h-2.65l8.47-21.52H244.06z M246.77,95.5l-4.07-10.76h-0.12
			l-4.13,10.76H246.77z"/>
		<path d="M261.54,82.09v21.52h-2.44V82.09H261.54z"/>
		<path d="M278.81,79.25c2.62,2.77,5.15,5.7,7.57,8.77l-1.42,1.51c-2.59-3.44-4.85-6.18-6.78-8.23c-2.23,3.32-4.79,6.36-7.75,9.13
			l-1.27-1.75c2.95-2.68,5.64-5.82,8.05-9.43H278.81z M274.62,90.59v12.45c0,0.69,0.36,1.05,1.15,1.05h5.76
			c1.02,0,1.69-0.27,1.93-0.75c0.27-0.57,0.48-1.69,0.6-3.35l2.05,0.66c-0.21,2.56-0.6,4.13-1.15,4.73
			c-0.48,0.48-1.45,0.72-2.86,0.72h-7.17c-1.69,0-2.5-0.78-2.5-2.32V88.66h10.73v8.02c-0.03,1.63-0.87,2.47-2.53,2.53
			c-1.15,0-2.26-0.03-3.32-0.09l-0.54-2.05c1.15,0.12,2.17,0.18,3.07,0.18c0.78,0,1.21-0.42,1.21-1.24v-5.43H274.62z M288.52,106.35
			l-0.48-2.08c1.54,0.09,3.01,0.15,4.4,0.15c0.75,0,1.15-0.45,1.15-1.36V79.07h2.17v24.53c0,1.81-0.87,2.74-2.56,2.74H288.52z
			 M290.26,81.63v18.78h-2.11V81.63H290.26z"/>
		<path d="M308.8,99.51c-0.72,2.41-1.69,4.49-2.95,6.24l-1.87-1.18c1.24-1.66,2.14-3.5,2.71-5.49L308.8,99.51z M305.88,82.69v-1.87
			h10.34c-0.27-0.66-0.57-1.24-0.87-1.75l2.32-0.36c0.3,0.63,0.63,1.33,0.93,2.11h10.61v1.87h-4.91l-1.18,2.38h7.51v1.9h-26.16v-1.9
			h7.23l-0.96-2.38H305.88z M327.19,88.75v8.92H307.9v-8.92H327.19z M325.08,92.39v-1.93h-15.07v1.93H325.08z M325.08,93.99h-15.07
			v1.99h15.07V93.99z M314.32,106.14c-2.05,0-3.04-0.93-3.04-2.8v-3.98h2.23v3.53c0,0.84,0.48,1.3,1.45,1.3h6.33
			c0.66,0,1.12-0.12,1.36-0.36c0.36-0.3,0.6-1.24,0.72-2.74l2.05,0.66c-0.21,2.08-0.63,3.35-1.24,3.83
			c-0.54,0.36-1.36,0.57-2.5,0.57H314.32z M320.86,85.07l1.18-2.38h-9.04l0.96,2.38H320.86z M320.8,101.65l-1.81,1.27
			c-0.72-1.09-1.69-2.26-2.95-3.53l1.84-1.15C319.14,99.51,320.14,100.65,320.8,101.65z M331.26,104.09l-1.81,1.27
			c-0.96-1.66-2.23-3.47-3.86-5.46l1.75-1.08C329.03,100.83,330.35,102.58,331.26,104.09z"/>
		<path d="M352.69,78.95c3.83,4.43,8.26,7.93,13.26,10.46l-1.18,2.08c-5.03-2.71-9.31-6.24-12.87-10.58
			c-3.29,4.1-7.63,7.63-12.99,10.64l-1.15-2.08c5.37-2.83,9.8-6.33,13.35-10.52H352.69z M361.43,106.59h-2.11v-1.81h-14.83v1.81
			h-2.11V94.44h19.05V106.59z M359.74,88.54v2.08h-15.67v-2.08H359.74z M359.32,102.7v-6.21h-14.83v6.21H359.32z"/>
		<path d="M373.33,93.36l-0.72-2.29c3.17-3.53,5.46-7.57,6.9-12.09l2.02,0.93c-0.78,2.35-1.78,4.55-2.98,6.6v20.04h-2.11V89.71
			C375.47,90.98,374.45,92.21,373.33,93.36z M391.21,86.79c0,0.96-0.06,1.9-0.15,2.8c1.33,6.72,4.31,11.85,9.01,15.34l-1.48,1.66
			c-4.16-3.44-6.93-7.69-8.29-12.78c-1.33,5.06-4.13,9.34-8.38,12.84l-1.48-1.63c5.67-4.46,8.56-10.4,8.68-17.81
			c0-2.77,0.03-5.46,0.03-7.99h2.17C391.33,81.78,391.27,84.32,391.21,86.79z M385.69,84.53c-0.33,3.53-1.12,6.66-2.38,9.37
			l-1.96-0.6c1.27-2.62,2.02-5.64,2.32-9.01L385.69,84.53z M399.01,84.32c-0.72,3.5-1.63,6.54-2.71,9.16l-1.96-0.69
			c1.02-2.35,1.93-5.37,2.71-9.01L399.01,84.32z"/>
		<path d="M421.5,85.73c1.69,8.2,6.06,14.47,13.08,18.78l-1.42,1.9c-6.15-4.04-10.31-9.46-12.45-16.28
			c-1.81,6.57-6.09,12-12.78,16.31l-1.33-1.93c8.29-5.09,12.57-12,12.84-20.68c0.03-2.05,0.06-3.65,0.06-4.79h2.2
			C421.71,81.63,421.62,83.86,421.5,85.73z"/>
	</g>
	<g>
		<path d="M452.7,18.43c1.45,1.45,2.17,3.22,2.17,5.29c0,2.05-0.72,3.82-2.17,5.29c-1.47,1.45-3.24,2.17-5.29,2.17
			c-2.07,0-3.84-0.72-5.29-2.17c-1.45-1.47-2.17-3.24-2.17-5.29c0-2.07,0.72-3.84,2.17-5.29s3.22-2.17,5.29-2.17
			C449.46,16.26,451.23,16.99,452.7,18.43z M442.97,19.28c-1.25,1.23-1.85,2.71-1.85,4.44c0,1.73,0.6,3.2,1.85,4.44
			c1.23,1.23,2.71,1.85,4.44,1.85s3.2-0.62,4.44-1.85c1.23-1.25,1.85-2.71,1.85-4.44c0-1.73-0.62-3.22-1.85-4.44
			c-1.25-1.25-2.71-1.85-4.44-1.85S444.2,18.03,442.97,19.28z M447.7,19.28c0.96,0,1.71,0.2,2.27,0.62c0.6,0.46,0.9,1.13,0.9,2.01
			c0,1-0.46,1.67-1.37,2.01c0.44,0.14,0.78,0.44,0.98,0.88c0.16,0.32,0.24,0.76,0.28,1.31c0.04,0.92,0.28,1.61,0.72,2.05h-2.09
			c-0.22-0.36-0.36-0.92-0.44-1.73c-0.08-0.64-0.2-1.06-0.38-1.31c-0.24-0.3-0.66-0.44-1.27-0.44h-1.65v3.48h-1.85v-8.88H447.7z
			 M445.67,23.12h1.83c0.5,0,0.88-0.1,1.17-0.28c0.24-0.2,0.38-0.5,0.38-0.86c0-0.76-0.52-1.15-1.55-1.15h-1.83V23.12z"/>
	</g>
</g>
</svg>
