<?xml version="1.0" encoding="utf-8"?>
<!-- Generator: Adobe Illustrator 25.3.1, SVG Export Plug-In . SVG Version: 6.00 Build 0)  -->
<svg version="1.1" id="图层_1" xmlns="http://www.w3.org/2000/svg" xmlns:xlink="http://www.w3.org/1999/xlink" x="0px" y="0px"
	 viewBox="0 0 248.47 44.72" style="enable-background:new 0 0 248.47 44.72;" xml:space="preserve">
<style type="text/css">
	.st0{fill:#3B3C48;}
	.st1{fill-rule:evenodd;clip-rule:evenodd;fill:#2770B8;}
</style>
<g>
	<g>
		<path class="st0" d="M48.65,31.33c0.96,0.58,2.62,1.02,3.98,1.02c2.5,0,3.87-1.46,3.87-3.56c0-2.07-1.26-3.24-3.36-4.68
			c-2.83-1.82-4.83-4.37-4.83-7.14c0-4.01,2.72-7.17,7.51-7.17c1.65,0,3.14,0.49,3.83,0.93l-0.76,3.49
			c-0.7-0.46-1.78-0.87-3.17-0.87c-2.31,0-3.4,1.57-3.4,3.11c0,1.99,1.02,2.89,3.64,4.58c3.26,2.11,4.55,4.6,4.55,7.35
			c0,4.59-3.3,7.52-7.88,7.52c-1.93,0-3.85-0.54-4.65-1.07L48.65,31.33z"/>
		<path class="st0" d="M68.17,12.19v4.96h3.59v2.94h-3.59v9.6c0,2.27,0.88,2.84,1.9,2.84c0.48,0,0.86-0.04,1.25-0.11l0.08,3.16
			c-0.61,0.19-1.5,0.31-2.65,0.31c-1.31,0-2.47-0.33-3.28-1.15c-0.9-0.91-1.36-2.25-1.36-5.01v-9.64h-2.22v-2.94h2.22v-3.92
			L68.17,12.19z"/>
		<path class="st0" d="M74.18,22.37c0-1.72-0.09-3.64-0.15-5.22h3.55l0.21,2.79h0.12c0.72-1.88,2.25-3.1,3.76-3.1
			c0.4,0,0.62,0.02,0.86,0.07v4.06c-0.25-0.04-0.51-0.04-0.87-0.04c-1.41,0-2.82,1.17-3.25,3.18c-0.1,0.45-0.17,1.07-0.17,1.78v9.78
			h-4.06V22.37z"/>
		<path class="st0" d="M92.34,35.67l-0.24-1.89h-0.09c-0.92,1.43-2.3,2.19-3.92,2.19c-2.66,0-4.66-2.23-4.66-5.48
			c0-4.76,4.02-6.77,8.21-6.81V23.2c0-1.93-0.75-3.28-2.77-3.28c-1.32,0-2.45,0.39-3.45,1.03l-0.78-2.77
			c0.91-0.58,2.86-1.32,5.12-1.32c4.77,0,5.99,3.26,5.99,7.21v7.4c0,1.44,0.04,2.99,0.24,4.22H92.34z M91.75,26.39
			c-1.58,0.02-4.44,0.46-4.44,3.68c0,2.09,1.11,2.85,2.01,2.85c1.02,0,2-0.69,2.34-2.12c0.08-0.29,0.1-0.62,0.1-0.94V26.39z"/>
		<path class="st0" d="M104.01,12.19v4.96h3.59v2.94h-3.59v9.6c0,2.27,0.88,2.84,1.9,2.84c0.48,0,0.86-0.04,1.25-0.11l0.08,3.16
			c-0.61,0.19-1.5,0.31-2.65,0.31c-1.31,0-2.47-0.33-3.28-1.15c-0.9-0.91-1.36-2.25-1.36-5.01v-9.64h-2.22v-2.94h2.22v-3.92
			L104.01,12.19z"/>
		<path class="st0" d="M122.32,26.36c0,7.47-3.85,9.61-6.66,9.61c-3.93,0-6.61-3.29-6.61-9.52c0-6.69,3.29-9.61,6.74-9.61
			C119.68,16.84,122.32,20.26,122.32,26.36z M113.1,26.39c0,3.12,0.53,6.45,2.69,6.45c2.02,0,2.48-3.66,2.48-6.45
			c0-2.69-0.46-6.41-2.56-6.41C113.54,19.98,113.1,23.7,113.1,26.39z"/>
		<path class="st0" d="M141.32,25.77c-0.15-2.87-0.32-6.36-0.24-9.2h-0.13c-0.5,2.8-1.19,5.91-1.81,8.36l-2.65,10.44h-2.79
			l-2.52-10.14c-0.65-2.61-1.37-5.79-1.81-8.65h-0.11c-0.03,2.9-0.21,6.29-0.35,9.33l-0.45,9.77h-3.54l1.7-25.64h4.33l2.47,10.38
			c0.78,3.31,1.42,6,1.92,8.91h0.09c0.44-2.88,1.01-5.57,1.75-8.91l2.42-10.38H144l1.52,25.64h-3.69L141.32,25.77z"/>
		<path class="st0" d="M153.2,12.3c0.02,1.39-0.92,2.34-2.25,2.34c-1.18,0-2.13-0.94-2.11-2.34c-0.02-1.44,0.97-2.36,2.17-2.36
			C152.29,9.94,153.2,10.85,153.2,12.3z M149.03,35.67V17.15h4.06v18.52H149.03z"/>
		<path class="st0" d="M156.83,22.37c0-2.09-0.09-3.58-0.15-5.22h3.52l0.21,2.18h0.08c0.88-1.48,2.44-2.48,4.38-2.48
			c3.09,0,4.73,2.4,4.73,6.69v12.13h-4.06V23.92c0-1.85-0.39-3.66-2.16-3.66c-1.01,0-1.91,0.77-2.27,2.27
			c-0.12,0.41-0.21,1.01-0.21,1.68v11.45h-4.06V22.37z"/>
		<path class="st0" d="M185.76,9.34v21.32c0,1.52,0.09,3.58,0.15,5h-3.49l-0.24-2.2h-0.11c-0.64,1.31-2.05,2.5-3.86,2.5
			c-3.58,0-5.6-3.93-5.6-9.51c0-6.5,2.79-9.62,5.79-9.62c1.53,0,2.65,0.73,3.24,2.01h0.08V9.34H185.76z M181.72,24.23
			c0-0.35,0-0.77-0.06-1.14c-0.17-1.49-1.01-2.81-2.21-2.81c-2.05,0-2.79,2.92-2.79,6.23c0,3.7,0.98,6.1,2.69,6.1
			c0.76,0,1.71-0.4,2.22-2.3c0.1-0.32,0.14-0.73,0.14-1.19V24.23z"/>
	</g>
</g>
<path class="st1" d="M17.31,8.1h24.6c0.14,0.03,0.2,0.09,0.18,0.21l-1.51,7.61c-0.03,0.15-0.12,0.22-0.26,0.22H27.98
	c-1.59-0.93-2.43-2.78-2-4.92c0.04-0.19-0.08-0.34-0.27-0.34c-0.19,0-0.37,0.15-0.4,0.34c-0.61,3.06-3.58,5.54-6.64,5.54
	c-0.19,0-0.37,0.15-0.4,0.34c-0.04,0.18,0.08,0.34,0.27,0.34c3.06,0,5.05,2.48,4.44,5.54c-0.04,0.19,0.08,0.34,0.27,0.34
	c0.18,0,0.37-0.15,0.4-0.34c0.42-2.14,2-3.99,3.96-4.92h5.92c2.87,0,4.59,1.78,5.13,5.36c-0.03,1.57-0.04,2.39-0.06,2.47L38.35,26
	H13.32c-2.87,0-4.58-1.76-5.12-5.29C8.2,20.68,8.2,20.66,8.2,20.63c-0.04-0.64-0.02-1.36,0.04-2.07c0.01-0.24,0.01-0.37,0.02-0.4
	l0.02-0.01c0.09-0.75,0.22-1.49,0.4-2.13C10.42,10.74,13.29,8.1,17.31,8.1L17.31,8.1z M6.53,27.92h31.44l0.2,0.12
	c-1.74,5.29-4.61,7.93-8.63,7.93H4.93c-0.14,0-0.2-0.07-0.17-0.21l1.51-7.62C6.33,28,6.42,27.92,6.53,27.92z"/>
<g>
	<path class="st0" d="M205,26.1c1.54,3.97,5.57,6.66,12.08,8l-0.81,1.85c-6.29-1.43-10.29-3.89-12.03-7.39
		c-1.62,3.41-5.4,5.87-11.33,7.41l-0.84-1.87c5.96-1.4,9.51-3.8,10.69-7.19c0.28-0.92,0.42-2.21,0.45-3.89h2.01
		C205.23,24.14,205.14,25.17,205,26.1z M199.07,24.95c-0.98,2.07-2.13,3.86-3.41,5.37l-1.59-1.12c1.29-1.43,2.38-3.13,3.27-5.12
		L199.07,24.95z M211.24,15.8v-2.66h-16.7v-1.82h18.71v10.69h-19.16v-1.82h17.15v-2.63H195.3V15.8H211.24z M214.29,24.7
		c-1.01,2.01-2.15,3.75-3.5,5.2l-1.62-1.15c1.29-1.37,2.41-2.99,3.36-4.9L214.29,24.7z"/>
	<path class="st0" d="M224.41,26.99c-0.81,3.13-1.96,5.82-3.44,8.11l-1.73-1.09c1.48-2.24,2.57-4.73,3.24-7.41L224.41,26.99z
		 M240.78,11.33v12.92h-17.51V11.33H240.78z M231.04,16.89v-3.66h-5.79v3.66H231.04z M231.04,18.68h-5.79v3.64h5.79V18.68z
		 M228.97,35.55c-1.9,0-2.85-1.01-2.85-2.97v-6.04h1.99v5.59c0,1.01,0.5,1.51,1.51,1.51h6.18c0.62,0,1.03-0.17,1.29-0.5
		c0.31-0.39,0.53-1.51,0.64-3.38l1.93,0.64c-0.17,2.46-0.56,3.94-1.15,4.48c-0.5,0.45-1.29,0.67-2.35,0.67H228.97z M235.35,30.12
		l-1.85,0.81c-0.87-1.93-1.82-3.64-2.83-5.12l1.82-0.59C233.59,26.74,234.54,28.39,235.35,30.12z M232.95,16.89h5.85v-3.66h-5.85
		V16.89z M238.79,18.68h-5.85v3.64h5.85V18.68z M244.75,33.26l-1.82,0.84c-1.26-2.85-2.66-5.37-4.17-7.55l1.9-0.62
		C242.23,28.22,243.61,30.66,244.75,33.26z"/>
</g>
</svg>
