<?xml version="1.0" encoding="utf-8"?>
<!-- Generator: Adobe Illustrator 25.3.1, SVG Export Plug-In . SVG Version: 6.00 Build 0)  -->
<svg version="1.1" id="图层_1" xmlns="http://www.w3.org/2000/svg" xmlns:xlink="http://www.w3.org/1999/xlink" x="0px" y="0px"
	 viewBox="0 0 254.25 44.72" style="enable-background:new 0 0 254.25 44.72;" xml:space="preserve">
<style type="text/css">
	.st0{fill:#3B3C48;}
	.st1{fill-rule:evenodd;clip-rule:evenodd;fill:#6F3BEB;}
</style>
<g>
	<g>
		<path class="st0" d="M46.65,31.33c0.96,0.58,2.62,1.02,3.98,1.02c2.5,0,3.87-1.46,3.87-3.56c0-2.07-1.26-3.24-3.36-4.68
			c-2.83-1.82-4.83-4.37-4.83-7.14c0-4.01,2.72-7.17,7.51-7.17c1.65,0,3.14,0.49,3.83,0.93l-0.76,3.49
			c-0.7-0.46-1.78-0.87-3.17-0.87c-2.31,0-3.4,1.57-3.4,3.11c0,1.99,1.02,2.89,3.64,4.58c3.26,2.11,4.55,4.6,4.55,7.35
			c0,4.59-3.3,7.52-7.88,7.52c-1.93,0-3.85-0.54-4.65-1.07L46.65,31.33z"/>
		<path class="st0" d="M66.17,12.19v4.96h3.59v2.94h-3.59v9.6c0,2.27,0.88,2.84,1.9,2.84c0.48,0,0.86-0.04,1.25-0.11l0.08,3.16
			c-0.61,0.19-1.5,0.31-2.65,0.31c-1.31,0-2.47-0.33-3.28-1.15c-0.9-0.91-1.36-2.25-1.36-5.01v-9.64h-2.22v-2.94h2.22v-3.92
			L66.17,12.19z"/>
		<path class="st0" d="M72.18,22.37c0-1.72-0.09-3.64-0.15-5.22h3.55l0.21,2.79h0.12c0.72-1.88,2.25-3.1,3.76-3.1
			c0.4,0,0.62,0.02,0.86,0.07v4.06c-0.25-0.04-0.51-0.04-0.87-0.04c-1.41,0-2.82,1.17-3.25,3.18c-0.1,0.45-0.17,1.07-0.17,1.78v9.78
			h-4.06C72.18,35.67,72.18,22.37,72.18,22.37z"/>
		<path class="st0" d="M90.34,35.67l-0.24-1.89h-0.09c-0.92,1.43-2.3,2.19-3.92,2.19c-2.66,0-4.66-2.23-4.66-5.48
			c0-4.76,4.02-6.77,8.21-6.81V23.2c0-1.93-0.75-3.28-2.77-3.28c-1.32,0-2.45,0.39-3.45,1.03l-0.78-2.77
			c0.91-0.58,2.86-1.32,5.12-1.32c4.77,0,5.99,3.26,5.99,7.21v7.4c0,1.44,0.04,2.99,0.24,4.22h-3.65V35.67z M89.75,26.39
			c-1.58,0.02-4.44,0.46-4.44,3.68c0,2.09,1.11,2.85,2.01,2.85c1.02,0,2-0.69,2.34-2.12c0.08-0.29,0.1-0.62,0.1-0.94L89.75,26.39
			L89.75,26.39z"/>
		<path class="st0" d="M102.01,12.19v4.96h3.59v2.94h-3.59v9.6c0,2.27,0.88,2.84,1.9,2.84c0.48,0,0.86-0.04,1.25-0.11l0.08,3.16
			c-0.61,0.19-1.5,0.31-2.65,0.31c-1.31,0-2.47-0.33-3.28-1.15c-0.9-0.91-1.36-2.25-1.36-5.01v-9.64h-2.22v-2.94h2.22v-3.92
			L102.01,12.19z"/>
		<path class="st0" d="M120.32,26.36c0,7.47-3.85,9.61-6.66,9.61c-3.93,0-6.61-3.29-6.61-9.52c0-6.69,3.29-9.61,6.74-9.61
			C117.68,16.84,120.32,20.26,120.32,26.36z M111.1,26.39c0,3.12,0.53,6.45,2.69,6.45c2.02,0,2.48-3.66,2.48-6.45
			c0-2.69-0.46-6.41-2.56-6.41C111.54,19.98,111.1,23.7,111.1,26.39z"/>
		<path class="st0" d="M139.32,25.77c-0.15-2.87-0.32-6.36-0.24-9.2h-0.13c-0.5,2.8-1.19,5.91-1.81,8.36l-2.65,10.44h-2.79
			l-2.52-10.14c-0.65-2.61-1.37-5.79-1.81-8.65h-0.11c-0.03,2.9-0.21,6.29-0.35,9.33l-0.45,9.77h-3.54l1.7-25.64h4.33l2.47,10.38
			c0.78,3.31,1.42,6,1.92,8.91h0.09c0.44-2.88,1.01-5.57,1.75-8.91l2.42-10.38h4.4l1.52,25.64h-3.69L139.32,25.77z"/>
		<path class="st0" d="M151.2,12.3c0.02,1.39-0.92,2.34-2.25,2.34c-1.18,0-2.13-0.94-2.11-2.34c-0.02-1.44,0.97-2.36,2.17-2.36
			C150.29,9.94,151.2,10.85,151.2,12.3z M147.03,35.67V17.15h4.06v18.52H147.03z"/>
		<path class="st0" d="M154.83,22.37c0-2.09-0.09-3.58-0.15-5.22h3.52l0.21,2.18h0.08c0.88-1.48,2.44-2.48,4.38-2.48
			c3.09,0,4.73,2.4,4.73,6.69v12.13h-4.06V23.92c0-1.85-0.39-3.66-2.16-3.66c-1.01,0-1.91,0.77-2.27,2.27
			c-0.12,0.41-0.21,1.01-0.21,1.68v11.45h-4.06V22.37H154.83z"/>
		<path class="st0" d="M183.76,9.34v21.32c0,1.52,0.09,3.58,0.15,5h-3.49l-0.24-2.2h-0.11c-0.64,1.31-2.05,2.5-3.86,2.5
			c-3.58,0-5.6-3.93-5.6-9.51c0-6.5,2.79-9.62,5.79-9.62c1.53,0,2.65,0.73,3.24,2.01h0.08v-9.5H183.76z M179.72,24.23
			c0-0.35,0-0.77-0.06-1.14c-0.17-1.49-1.01-2.81-2.21-2.81c-2.05,0-2.79,2.92-2.79,6.23c0,3.7,0.98,6.1,2.69,6.1
			c0.76,0,1.71-0.4,2.22-2.3c0.1-0.32,0.14-0.73,0.14-1.19L179.72,24.23L179.72,24.23z"/>
	</g>
</g>
<path class="st1" d="M15.31,8.1h24.6c0.14,0.03,0.2,0.09,0.18,0.21l-1.51,7.61c-0.03,0.15-0.12,0.22-0.26,0.22H25.98
	c-1.59-0.93-2.43-2.78-2-4.92c0.04-0.19-0.08-0.34-0.27-0.34s-0.37,0.15-0.4,0.34c-0.61,3.06-3.58,5.54-6.64,5.54
	c-0.19,0-0.37,0.15-0.4,0.34c-0.04,0.18,0.08,0.34,0.27,0.34c3.06,0,5.05,2.48,4.44,5.54c-0.04,0.19,0.08,0.34,0.27,0.34
	c0.18,0,0.37-0.15,0.4-0.34c0.42-2.14,2-3.99,3.96-4.92h5.92c2.87,0,4.59,1.78,5.13,5.36c-0.03,1.57-0.04,2.39-0.06,2.47L36.35,26
	H11.32c-2.87,0-4.58-1.76-5.12-5.29c0-0.03,0-0.05,0-0.08c-0.04-0.64-0.02-1.36,0.04-2.07c0.01-0.24,0.01-0.37,0.02-0.4l0.02-0.01
	c0.09-0.75,0.22-1.49,0.4-2.13C8.42,10.74,11.29,8.1,15.31,8.1L15.31,8.1z M4.53,27.92h31.44l0.2,0.12
	c-1.74,5.29-4.61,7.93-8.63,7.93H2.93c-0.14,0-0.2-0.07-0.17-0.21l1.51-7.62C4.33,28,4.42,27.92,4.53,27.92z"/>
<g>
	<path d="M193.01,21.45v-1.83h15.54v-2.46h-18.03v-1.78h18.03v-2.51h-15.24v-1.83h17.12v4.34h3.55v1.78h-3.55v4.29H193.01z
		 M203.17,25.44c1.5,3.88,5.44,6.5,11.8,7.81l-0.79,1.8c-6.15-1.39-10.05-3.8-11.75-7.21c-1.58,3.33-5.27,5.74-11.06,7.24
		l-0.82-1.83c5.82-1.37,9.29-3.71,10.43-7.02c0.27-0.9,0.41-2.16,0.44-3.8h1.97C203.39,23.52,203.31,24.53,203.17,25.44z
		 M197.36,28.14l-1.56,1.07c-0.82-1.42-1.97-2.98-3.39-4.67l1.56-0.96C195.44,25.33,196.56,26.83,197.36,28.14z M212.35,23.99
		c-1.04,1.99-2.27,3.71-3.63,5.16l-1.58-1.09c1.37-1.37,2.51-3,3.5-4.92L212.35,23.99z"/>
	<path d="M222.13,26.31c-0.79,3.06-1.91,5.68-3.36,7.92l-1.69-1.07c1.45-2.18,2.51-4.62,3.17-7.24L222.13,26.31z M238.11,11.01
		v12.62h-17.1V11.01H238.11z M228.61,16.45v-3.58h-5.65v3.58H228.61z M228.61,18.2h-5.65v3.55h5.65V18.2z M226.58,34.67
		c-1.86,0-2.79-0.98-2.79-2.89v-5.9h1.94v5.46c0,0.98,0.49,1.47,1.47,1.47h6.04c0.6,0,1.01-0.16,1.26-0.49
		c0.3-0.38,0.52-1.47,0.63-3.3l1.88,0.63c-0.16,2.4-0.55,3.85-1.12,4.37c-0.49,0.44-1.26,0.66-2.29,0.66H226.58z M232.81,29.37
		l-1.8,0.79c-0.85-1.88-1.78-3.55-2.76-5l1.78-0.57C231.09,26.06,232.02,27.67,232.81,29.37z M230.46,16.45h5.71v-3.58h-5.71V16.45z
		 M236.17,18.2h-5.71v3.55h5.71V18.2z M241.99,32.43l-1.78,0.82c-1.23-2.79-2.59-5.24-4.07-7.38l1.86-0.6
		C239.53,27.51,240.87,29.89,241.99,32.43z"/>
</g>
<g>
	<path d="M250.95,12.71c0.86,0.86,1.29,1.92,1.29,3.15c0,1.22-0.43,2.28-1.29,3.15c-0.88,0.86-1.93,1.3-3.15,1.3
		c-1.24,0-2.29-0.43-3.15-1.3c-0.86-0.88-1.29-1.93-1.29-3.15c0-1.24,0.43-2.29,1.29-3.15c0.86-0.86,1.92-1.3,3.15-1.3
		C249.02,11.42,250.08,11.85,250.95,12.71z M245.15,13.22c-0.74,0.73-1.1,1.62-1.1,2.65c0,1.03,0.36,1.91,1.1,2.65
		c0.73,0.73,1.62,1.1,2.65,1.1s1.91-0.37,2.65-1.1c0.73-0.74,1.1-1.62,1.1-2.65c0-1.03-0.37-1.92-1.1-2.65
		c-0.74-0.74-1.62-1.1-2.65-1.1S245.88,12.47,245.15,13.22z M247.97,13.22c0.58,0,1.02,0.12,1.36,0.37c0.36,0.28,0.54,0.67,0.54,1.2
		c0,0.6-0.28,1-0.82,1.2c0.26,0.08,0.47,0.26,0.59,0.53c0.1,0.19,0.14,0.46,0.17,0.78c0.02,0.55,0.17,0.96,0.43,1.22h-1.25
		c-0.13-0.22-0.22-0.55-0.26-1.03c-0.05-0.38-0.12-0.64-0.23-0.78c-0.14-0.18-0.4-0.26-0.75-0.26h-0.98v2.08h-1.1v-5.3H247.97z
		 M246.76,15.51h1.09c0.3,0,0.53-0.06,0.7-0.17c0.14-0.12,0.23-0.3,0.23-0.52c0-0.46-0.31-0.68-0.92-0.68h-1.09V15.51z"/>
</g>
</svg>
